<mxfile>
    <diagram id="Bfm7pNlKa3ubtwNKQ6Rp" name="Page-1">
        <mxGraphModel dx="1020" dy="891" grid="1" gridSize="10" guides="1" tooltips="1" connect="1" arrows="1" fold="1" page="1" pageScale="1" pageWidth="850" pageHeight="1100" math="0" shadow="0">
            <root>
                <mxCell id="0"/>
                <mxCell id="1" parent="0"/>
                <mxCell id="2" value="Compiler(File)" style="rounded=0;whiteSpace=wrap;html=1;" vertex="1" parent="1">
                    <mxGeometry x="80" y="160" width="120" height="60" as="geometry"/>
                </mxCell>
                <mxCell id="3" value="Flags List" style="rounded=0;whiteSpace=wrap;html=1;" vertex="1" parent="1">
                    <mxGeometry x="240" y="160" width="120" height="60" as="geometry"/>
                </mxCell>
                <mxCell id="4" value="Flag Tuple" style="rounded=0;whiteSpace=wrap;html=1;" vertex="1" parent="1">
                    <mxGeometry x="240" y="280" width="120" height="60" as="geometry"/>
                </mxCell>
                <mxCell id="5" value="Direct Input List" style="rounded=0;whiteSpace=wrap;html=1;" vertex="1" parent="1">
                    <mxGeometry x="400" y="160" width="120" height="60" as="geometry"/>
                </mxCell>
                <mxCell id="6" value="Implicit Input List" style="rounded=0;whiteSpace=wrap;html=1;" vertex="1" parent="1">
                    <mxGeometry x="560" y="280" width="120" height="60" as="geometry"/>
                </mxCell>
                <mxCell id="8" value="FilePath" style="rounded=0;whiteSpace=wrap;html=1;" vertex="1" parent="1">
                    <mxGeometry x="80" y="280" width="120" height="60" as="geometry"/>
                </mxCell>
                <mxCell id="9" value="FileVersion" style="rounded=0;whiteSpace=wrap;html=1;" vertex="1" parent="1">
                    <mxGeometry x="80" y="400" width="120" height="60" as="geometry"/>
                </mxCell>
                <mxCell id="10" value="VersionProvider" style="rounded=0;whiteSpace=wrap;html=1;" vertex="1" parent="1">
                    <mxGeometry x="80" y="520" width="120" height="60" as="geometry"/>
                </mxCell>
                <mxCell id="11" value="VersionId" style="rounded=0;whiteSpace=wrap;html=1;" vertex="1" parent="1">
                    <mxGeometry x="80" y="640" width="120" height="60" as="geometry"/>
                </mxCell>
                <mxCell id="12" value="Output" style="rounded=0;whiteSpace=wrap;html=1;" vertex="1" parent="1">
                    <mxGeometry x="560" y="400" width="120" height="60" as="geometry"/>
                </mxCell>
                <mxCell id="13" value="Compiler Output" style="rounded=0;whiteSpace=wrap;html=1;" vertex="1" parent="1">
                    <mxGeometry x="560" y="520" width="120" height="60" as="geometry"/>
                </mxCell>
                <mxCell id="14" value="Link Output" style="rounded=0;whiteSpace=wrap;html=1;" vertex="1" parent="1">
                    <mxGeometry x="400" y="600" width="120" height="60" as="geometry"/>
                </mxCell>
                <mxCell id="15" value="LInked Object" style="rounded=0;whiteSpace=wrap;html=1;" vertex="1" parent="1">
                    <mxGeometry x="400" y="720" width="120" height="60" as="geometry"/>
                </mxCell>
            </root>
        </mxGraphModel>
    </diagram>
    <diagram id="HaVSMrQEYaTlxtYnWqoC" name="Page-2">
        <mxGraphModel dx="1020" dy="891" grid="1" gridSize="10" guides="1" tooltips="1" connect="1" arrows="1" fold="1" page="1" pageScale="1" pageWidth="850" pageHeight="1100" math="0" shadow="0">
            <root>
                <mxCell id="yiwiRXcbR0Bu5J4EHbcg-0"/>
                <mxCell id="yiwiRXcbR0Bu5J4EHbcg-1" parent="yiwiRXcbR0Bu5J4EHbcg-0"/>
                <mxCell id="yiwiRXcbR0Bu5J4EHbcg-2" value="IdElem" style="rounded=0;whiteSpace=wrap;html=1;" vertex="1" parent="yiwiRXcbR0Bu5J4EHbcg-1">
                    <mxGeometry x="80" y="80" width="120" height="60" as="geometry"/>
                </mxCell>
                <mxCell id="yiwiRXcbR0Bu5J4EHbcg-3" value="IdCat" style="rounded=0;whiteSpace=wrap;html=1;" vertex="1" parent="yiwiRXcbR0Bu5J4EHbcg-1">
                    <mxGeometry x="240" y="80" width="120" height="60" as="geometry"/>
                </mxCell>
                <mxCell id="yiwiRXcbR0Bu5J4EHbcg-4" value="IdVal" style="rounded=0;whiteSpace=wrap;html=1;" vertex="1" parent="yiwiRXcbR0Bu5J4EHbcg-1">
                    <mxGeometry x="400" y="80" width="120" height="60" as="geometry"/>
                </mxCell>
                <mxCell id="yiwiRXcbR0Bu5J4EHbcg-5" value="IdList" style="rounded=0;whiteSpace=wrap;html=1;" vertex="1" parent="yiwiRXcbR0Bu5J4EHbcg-1">
                    <mxGeometry x="80" y="200" width="120" height="60" as="geometry"/>
                </mxCell>
                <mxCell id="yiwiRXcbR0Bu5J4EHbcg-6" value="IdCat" style="rounded=0;whiteSpace=wrap;html=1;" vertex="1" parent="yiwiRXcbR0Bu5J4EHbcg-1">
                    <mxGeometry x="240" y="200" width="120" height="60" as="geometry"/>
                </mxCell>
                <mxCell id="yiwiRXcbR0Bu5J4EHbcg-7" value="ListIdElem" style="rounded=0;whiteSpace=wrap;html=1;" vertex="1" parent="yiwiRXcbR0Bu5J4EHbcg-1">
                    <mxGeometry x="400" y="200" width="120" height="60" as="geometry"/>
                </mxCell>
                <mxCell id="yiwiRXcbR0Bu5J4EHbcg-10" value="IdSet:IdList" style="rounded=0;whiteSpace=wrap;html=1;" vertex="1" parent="yiwiRXcbR0Bu5J4EHbcg-1">
                    <mxGeometry x="80" y="320" width="120" height="60" as="geometry"/>
                </mxCell>
                <mxCell id="yiwiRXcbR0Bu5J4EHbcg-11" value="Id: File, Contiguous" style="rounded=0;whiteSpace=wrap;html=1;" vertex="1" parent="yiwiRXcbR0Bu5J4EHbcg-1">
                    <mxGeometry x="80" y="480" width="120" height="60" as="geometry"/>
                </mxCell>
                <mxCell id="yiwiRXcbR0Bu5J4EHbcg-12" value="Id: File, Contiguous" style="rounded=0;whiteSpace=wrap;html=1;" vertex="1" parent="yiwiRXcbR0Bu5J4EHbcg-1">
                    <mxGeometry x="240" y="480" width="120" height="60" as="geometry"/>
                </mxCell>
            </root>
        </mxGraphModel>
    </diagram>
    <diagram id="hM8QbITkfLxGVdMMlZrq" name="Page-3">
        <mxGraphModel dx="1020" dy="891" grid="1" gridSize="10" guides="1" tooltips="1" connect="1" arrows="1" fold="1" page="1" pageScale="1" pageWidth="850" pageHeight="1100" math="0" shadow="0">
            <root>
                <mxCell id="d0HvvrYrW7H8tb01_yvf-0"/>
                <mxCell id="d0HvvrYrW7H8tb01_yvf-1" parent="d0HvvrYrW7H8tb01_yvf-0"/>
                <mxCell id="XjR70vfnezWDno_9KjXc-0" value="begin_id_temp" style="rounded=0;whiteSpace=wrap;html=1;" vertex="1" parent="d0HvvrYrW7H8tb01_yvf-1">
                    <mxGeometry x="160" y="40" width="120" height="60" as="geometry"/>
                </mxCell>
                <mxCell id="XjR70vfnezWDno_9KjXc-1" value="Element Subkeys" style="rounded=0;whiteSpace=wrap;html=1;" vertex="1" parent="d0HvvrYrW7H8tb01_yvf-1">
                    <mxGeometry x="640" y="40" width="120" height="60" as="geometry"/>
                </mxCell>
                <mxCell id="XjR70vfnezWDno_9KjXc-2" value="Element Inheritances" style="rounded=0;whiteSpace=wrap;html=1;" vertex="1" parent="d0HvvrYrW7H8tb01_yvf-1">
                    <mxGeometry x="480" y="40" width="120" height="60" as="geometry"/>
                </mxCell>
                <mxCell id="XjR70vfnezWDno_9KjXc-3" value="end_id" style="rounded=0;whiteSpace=wrap;html=1;" vertex="1" parent="d0HvvrYrW7H8tb01_yvf-1">
                    <mxGeometry x="160" y="200" width="120" height="60" as="geometry"/>
                </mxCell>
                <mxCell id="XjR70vfnezWDno_9KjXc-4" value="IdTemp" style="rounded=0;whiteSpace=wrap;html=1;" vertex="1" parent="d0HvvrYrW7H8tb01_yvf-1">
                    <mxGeometry x="320" y="40" width="120" height="60" as="geometry"/>
                </mxCell>
                <mxCell id="XjR70vfnezWDno_9KjXc-6" value="IdPermanent" style="rounded=0;whiteSpace=wrap;html=1;" vertex="1" parent="d0HvvrYrW7H8tb01_yvf-1">
                    <mxGeometry x="319" y="121" width="120" height="60" as="geometry"/>
                </mxCell>
            </root>
        </mxGraphModel>
    </diagram>
    <diagram id="WsqQ8nyQofAk9imk2ok2" name="Page-4">
        <mxGraphModel dx="1020" dy="891" grid="1" gridSize="10" guides="1" tooltips="1" connect="1" arrows="1" fold="1" page="1" pageScale="1" pageWidth="850" pageHeight="1100" math="0" shadow="0">
            <root>
                <mxCell id="6xDibn89-bgB7f8KKL16-0"/>
                <mxCell id="6xDibn89-bgB7f8KKL16-1" parent="6xDibn89-bgB7f8KKL16-0"/>
            </root>
        </mxGraphModel>
    </diagram>
</mxfile>